{
	"asset":{
		"generator":"Khronos glTF Blender I/O v4.1.63",
		"version":"2.0"
	},
	"extensionsUsed":[
		"KHR_materials_transmission",
		"KHR_materials_specular",
		"KHR_materials_anisotropy",
		"EXT_texture_webp"
	],
	"extensionsRequired":[
		"EXT_texture_webp"
	],
	"scene":0,
	"scenes":[
		{
			"name":"Scene",
			"nodes":[
				0,
				1,
				2,
				3
			]
		}
	],
	"nodes":[
		{
			"mesh":0,
			"name":"Main Cristal"
		},
		{
			"mesh":1,
			"name":"Tower"
		},
		{
			"mesh":2,
			"name":"Banners"
		},
		{
			"mesh":3,
			"name":"GondelRings.Tower"
		}
	],
	"materials":[
		{
			"doubleSided":true,
			"emissiveFactor":[
				0.19999998807907104,
				0.19999998807907104,
				0.19999998807907104
			],
			"extensions":{
				"KHR_materials_transmission":{
					"transmissionFactor":0.5090909004211426
				},
				"KHR_materials_specular":{
					"specularColorFactor":[
						1.336363673210144,
						1.336363673210144,
						1.336363673210144
					]
				},
				"KHR_materials_anisotropy":{
					"anisotropyStrength":0.4318181872367859
				}
			},
			"name":"Mat.TowerCrystal",
			"pbrMetallicRoughness":{
				"metallicFactor":0.41886183619499207,
				"roughnessFactor":0.3498210608959198
			}
		},
		{
			"doubleSided":true,
			"name":"Mat.Tower",
			"normalTexture":{
				"index":0
			},
			"pbrMetallicRoughness":{
				"baseColorTexture":{
					"index":1
				},
				"metallicFactor":0,
				"roughnessFactor":0.5
			}
		},
		{
			"doubleSided":true,
			"name":"Mat.TowerBanner",
			"pbrMetallicRoughness":{
				"baseColorTexture":{
					"index":2
				},
				"metallicFactor":0.04724409431219101,
				"roughnessFactor":0.6889763474464417
			}
		},
		{
			"doubleSided":true,
			"name":"Mat.TowerGoldenRing",
			"pbrMetallicRoughness":{
				"baseColorFactor":[
					0.7280608415603638,
					0.4582533538341522,
					0,
					1
				],
				"roughnessFactor":0.21556907892227173
			}
		}
	],
	"meshes":[
		{
			"name":"Main.Crystal",
			"primitives":[
				{
					"attributes":{
						"POSITION":0,
						"NORMAL":1,
						"TEXCOORD_0":2
					},
					"indices":3,
					"material":0
				}
			]
		},
		{
			"name":"Upper.Crystals",
			"primitives":[
				{
					"attributes":{
						"POSITION":4,
						"NORMAL":5,
						"TEXCOORD_0":6
					},
					"indices":7,
					"material":1
				}
			]
		},
		{
			"name":"Banners",
			"primitives":[
				{
					"attributes":{
						"POSITION":8,
						"NORMAL":9,
						"TEXCOORD_0":10
					},
					"indices":11,
					"material":2
				}
			]
		},
		{
			"name":"Torus.004",
			"primitives":[
				{
					"attributes":{
						"POSITION":12,
						"NORMAL":13,
						"TEXCOORD_0":14
					},
					"indices":15,
					"material":3
				}
			]
		}
	],
	"textures":[
		{
			"extensions":{
				"EXT_texture_webp":{
					"source":0
				}
			},
			"sampler":0
		},
		{
			"extensions":{
				"EXT_texture_webp":{
					"source":1
				}
			},
			"sampler":0
		},
		{
			"extensions":{
				"EXT_texture_webp":{
					"source":2
				}
			},
			"sampler":0
		}
	],
	"images":[
		{
			"mimeType":"image/webp",
			"name":"Tex.Normal",
			"uri":"../Core/Tex_Normal.webp"
		},
		{
			"mimeType":"image/webp",
			"name":"Tex.Diffuse",
			"uri":"../Core/Tex_Diffuse.webp"
		},
		{
			"mimeType":"image/webp",
			"name":"Tex.Diffuse",
			"uri":"../Core/Tex_Diffuse-1.webp"
		}
	],
	"accessors":[
		{
			"bufferView":0,
			"componentType":5126,
			"count":96,
			"max":[
				0.4889192283153534,
				5.191031455993652,
				0.4613502025604248
			],
			"min":[
				-0.48153579235076904,
				4.274733543395996,
				-0.44714903831481934
			],
			"type":"VEC3"
		},
		{
			"bufferView":1,
			"componentType":5126,
			"count":96,
			"type":"VEC3"
		},
		{
			"bufferView":2,
			"componentType":5126,
			"count":96,
			"type":"VEC2"
		},
		{
			"bufferView":3,
			"componentType":5123,
			"count":96,
			"type":"SCALAR"
		},
		{
			"bufferView":4,
			"componentType":5126,
			"count":1676,
			"max":[
				0.9998856782913208,
				4.550000190734863,
				1.0003156661987305
			],
			"min":[
				-1.0001552104949951,
				0,
				-0.999725341796875
			],
			"type":"VEC3"
		},
		{
			"bufferView":5,
			"componentType":5126,
			"count":1676,
			"type":"VEC3"
		},
		{
			"bufferView":6,
			"componentType":5126,
			"count":1676,
			"type":"VEC2"
		},
		{
			"bufferView":7,
			"componentType":5123,
			"count":4230,
			"type":"SCALAR"
		},
		{
			"bufferView":8,
			"componentType":5126,
			"count":984,
			"max":[
				0.8260767459869385,
				3.9737274646759033,
				0.8260688781738281
			],
			"min":[
				-0.826076328754425,
				0.010388374328613281,
				-0.8260841369628906
			],
			"type":"VEC3"
		},
		{
			"bufferView":9,
			"componentType":5126,
			"count":984,
			"type":"VEC3"
		},
		{
			"bufferView":10,
			"componentType":5126,
			"count":984,
			"type":"VEC2"
		},
		{
			"bufferView":11,
			"componentType":5123,
			"count":3888,
			"type":"SCALAR"
		},
		{
			"bufferView":12,
			"componentType":5126,
			"count":882,
			"max":[
				0.7832774519920349,
				4.469984531402588,
				0.7904253005981445
			],
			"min":[
				-0.7832767963409424,
				1.7438055276870728,
				-0.7761287689208984
			],
			"type":"VEC3"
		},
		{
			"bufferView":13,
			"componentType":5126,
			"count":882,
			"type":"VEC3"
		},
		{
			"bufferView":14,
			"componentType":5126,
			"count":882,
			"type":"VEC2"
		},
		{
			"bufferView":15,
			"componentType":5123,
			"count":2880,
			"type":"SCALAR"
		}
	],
	"bufferViews":[
		{
			"buffer":0,
			"byteLength":1152,
			"byteOffset":0,
			"target":34962
		},
		{
			"buffer":0,
			"byteLength":1152,
			"byteOffset":1152,
			"target":34962
		},
		{
			"buffer":0,
			"byteLength":768,
			"byteOffset":2304,
			"target":34962
		},
		{
			"buffer":0,
			"byteLength":192,
			"byteOffset":3072,
			"target":34963
		},
		{
			"buffer":0,
			"byteLength":20112,
			"byteOffset":3264,
			"target":34962
		},
		{
			"buffer":0,
			"byteLength":20112,
			"byteOffset":23376,
			"target":34962
		},
		{
			"buffer":0,
			"byteLength":13408,
			"byteOffset":43488,
			"target":34962
		},
		{
			"buffer":0,
			"byteLength":8460,
			"byteOffset":56896,
			"target":34963
		},
		{
			"buffer":0,
			"byteLength":11808,
			"byteOffset":65356,
			"target":34962
		},
		{
			"buffer":0,
			"byteLength":11808,
			"byteOffset":77164,
			"target":34962
		},
		{
			"buffer":0,
			"byteLength":7872,
			"byteOffset":88972,
			"target":34962
		},
		{
			"buffer":0,
			"byteLength":7776,
			"byteOffset":96844,
			"target":34963
		},
		{
			"buffer":0,
			"byteLength":10584,
			"byteOffset":104620,
			"target":34962
		},
		{
			"buffer":0,
			"byteLength":10584,
			"byteOffset":115204,
			"target":34962
		},
		{
			"buffer":0,
			"byteLength":7056,
			"byteOffset":125788,
			"target":34962
		},
		{
			"buffer":0,
			"byteLength":5760,
			"byteOffset":132844,
			"target":34963
		}
	],
	"samplers":[
		{
			"magFilter":9729,
			"minFilter":9987
		}
	],
	"buffers":[
		{
			"byteLength":138604,
			"uri":"tower2.bin"
		}
	]
}
