# OpenChamp Navigation Mesh
# Scene: konda
# Vertices: 440
# Faces: 465

v -4.250000 0.450000 -32.250000
v -4.500000 0.450000 -32.000000
v -5.000000 0.450000 -32.750000
v -3.750000 0.450000 -31.500000
v -3.250000 0.450000 -32.250000
v -6.250000 0.450000 -31.750000
v -5.000000 0.450000 -34.250000
v -2.750000 0.450000 -31.500000
v -3.750000 0.450000 -30.000000
v -6.250000 0.450000 -29.750000
v -18.500000 0.450000 -35.750000
v -13.100000 0.450000 -35.150002
v -17.150000 0.950000 -35.599998
v -17.100000 0.950000 -35.674999
v -4.500000 0.450000 -35.000000
v -2.500000 0.450000 -29.500000
v -1.750000 0.450000 -31.500000
v -4.250000 0.450000 -29.500000
v -17.000000 0.450000 -15.750000
v -4.750000 0.450000 -29.000000
v -13.000000 0.450000 -17.750000
v -11.000000 0.450000 -18.750000
v -4.750000 0.450000 -27.250000
v -9.000000 0.450000 -19.750000
v -15.000000 0.450000 -16.750000
v -19.000000 0.450000 -14.750000
v -18.500000 0.450000 -37.000000
v -19.500000 0.450000 -37.000000
v -17.113636 0.950000 -35.772728
v -3.250000 0.450000 -34.750000
v -3.250000 0.950000 -36.000000
v -1.250000 0.700000 -32.250000
v -2.000000 0.450000 -28.000000
v -17.500000 0.450000 -14.750000
v -15.500000 0.450000 -15.750000
v -13.500000 0.450000 -16.750000
v -11.500000 0.450000 -17.750000
v -9.500000 0.450000 -18.750000
v -7.000000 0.450000 -20.750000
v -3.750000 0.450000 -26.750000
v -7.500000 0.450000 -19.750000
v -19.500000 0.450000 -14.000000
v 1.250000 0.700000 -32.250000
v 2.500000 0.450000 -29.500000
v 2.000000 0.450000 -28.000000
v 2.500000 0.450000 -26.750000
v -2.500000 0.450000 -26.750000
v -5.500000 0.450000 -20.750000
v -5.000000 0.450000 -21.750000
v -3.750000 0.450000 -21.750000
v 1.750000 0.450000 -31.500000
v 3.750000 0.450000 -30.000000
v 3.750000 0.450000 -31.500000
v 4.250000 0.450000 -29.500000
v -2.500000 0.450000 -21.250000
v 2.500000 0.450000 -21.250000
v 3.750000 0.450000 -21.750000
v 3.750000 0.450000 -26.750000
v 4.250000 0.450000 -32.250000
v 4.500000 0.450000 -32.000000
v 4.750000 0.450000 -29.000000
v 6.250000 0.450000 -29.750000
v -2.250000 0.450000 -20.000000
v 2.250000 0.450000 -20.000000
v 5.000000 0.450000 -21.750000
v 7.000000 0.450000 -20.750000
v 4.750000 0.450000 -27.250000
v 5.000000 0.450000 -32.750000
v 6.250000 0.450000 -31.750000
v 9.000000 0.450000 -19.750000
v 17.495026 0.450000 -33.503025
v 19.500000 0.450000 -26.000000
v -2.750000 0.450000 -18.250000
v 3.000000 0.450000 -18.250000
v 5.500000 0.450000 -20.750000
v 7.500000 0.450000 -19.750000
v 5.000000 0.450000 -34.250000
v 18.250000 0.950000 -35.750000
v 13.833336 0.450000 -35.250000
v 16.777779 0.950000 -35.583332
v 11.000000 0.450000 -18.750000
v 9.500000 0.450000 -18.750000
v 20.250000 0.950000 -26.000000
v 19.500000 0.450000 -25.000000
v 19.500000 0.450000 -27.000000
v -4.250000 0.450000 -18.250000
v -5.000000 0.450000 -17.250000
v 5.250000 0.450000 -17.250000
v 4.500000 0.450000 -18.250000
v 1.250000 0.450000 -11.500000
v -1.500000 0.450000 -11.500000
v 16.875000 0.950000 -35.674999
v 4.500000 0.450000 -35.000000
v 19.500000 0.450000 -31.000000
v 18.500000 0.450000 -35.000000
v 19.500000 0.450000 -30.000000
v 3.250000 0.950000 -35.750000
v 19.500000 0.450000 -29.000000
v 19.500000 0.450000 -28.000000
v 11.500000 0.450000 -17.750000
v 13.000000 0.450000 -17.750000
v 20.250000 0.950000 -25.000000
v 19.500000 0.450000 -24.000000
v 20.250000 0.950000 -28.000000
v 20.250000 0.950000 -27.000000
v -1.750000 0.450000 -11.000000
v -6.250000 0.450000 -17.250000
v -6.750000 0.450000 -16.250000
v 1.500000 0.450000 -11.000000
v 7.000000 0.450000 -16.250000
v 6.500000 0.450000 -17.250000
v 3.250000 0.450000 -34.750000
v 20.250000 0.950000 -32.000000
v 19.500000 0.450000 -32.000000
v 20.250000 0.950000 -31.000000
v 19.500000 0.700000 -35.000000
v 19.500000 0.450000 -34.000000
v 19.500000 0.450000 -33.000000
v 20.250000 0.950000 -30.000000
v 20.250000 0.950000 -29.000000
v 13.500000 0.450000 -16.750000
v 15.000000 0.450000 -16.750000
v 19.500000 0.450000 -23.000000
v 20.250000 0.950000 -24.000000
v -8.750000 0.450000 -15.250000
v -7.250000 0.450000 -5.500000
v -1.750000 0.450000 -8.750000
v -8.250000 0.450000 -16.250000
v 9.000000 0.450000 -15.250000
v 1.500000 0.450000 -8.750000
v 5.000000 0.450000 -5.500000
v 7.250000 0.450000 -5.500000
v 8.500000 0.450000 -16.250000
v 20.250000 0.950000 -33.750000
v 20.250000 0.950000 -33.000000
v 19.500000 0.450000 -21.000000
v 19.500000 0.450000 -22.000000
v 15.500000 0.450000 -15.750000
v 17.000000 0.450000 -15.750000
v 19.500000 0.450000 -20.000000
v 20.250000 0.950000 -23.000000
v -10.250000 0.450000 -15.250000
v -10.750000 0.450000 -14.250000
v -12.750000 0.450000 -13.250000
v -14.750000 0.450000 -12.250000
v -9.000000 0.450000 -2.250000
v -5.000000 0.450000 -5.500000
v -1.500000 0.450000 -8.250000
v 10.500000 0.450000 -15.250000
v 11.000000 0.450000 -14.250000
v 1.250000 0.450000 -8.250000
v 4.000000 0.450000 -4.500000
v 15.000000 0.450000 -12.250000
v 13.000000 0.450000 -13.250000
v 9.000000 0.450000 -2.250000
v 20.250000 0.950000 -22.000000
v 20.250000 0.950000 -21.000000
v 19.500000 0.450000 -19.000000
v 17.500000 0.450000 -14.750000
v 19.000000 0.450000 -14.750000
v 19.500000 0.450000 -17.000000
v 19.500000 0.450000 -18.000000
v 20.250000 0.950000 -20.000000
v -12.250000 0.450000 -14.250000
v -14.250000 0.450000 -13.250000
v -16.500000 0.450000 -2.750000
v -16.500000 0.450000 -12.000000
v -16.250000 0.450000 -0.750000
v -9.000000 0.450000 2.250000
v -4.000000 0.450000 -4.500000
v -3.250000 0.450000 -2.000000
v 12.500000 0.450000 -14.250000
v 4.000000 0.450000 -3.250000
v 3.250000 0.450000 -2.000000
v 14.500000 0.450000 -13.250000
v 16.500000 0.450000 -3.000000
v 16.500000 0.450000 -12.250000
v 16.250000 0.450000 -0.750000
v 16.250000 0.450000 0.750000
v 9.000000 0.450000 2.250000
v 20.250000 0.950000 -19.000000
v 19.500000 0.450000 -14.250000
v 19.500000 0.450000 -15.000000
v 19.500000 0.450000 -16.000000
v 20.250000 0.950000 -18.000000
v 20.250000 0.950000 -17.000000
v -16.750000 0.450000 -2.250000
v -16.500000 0.450000 1.500000
v -16.500000 0.450000 3.000000
v -17.000000 0.450000 -1.750000
v -15.000000 0.450000 12.250000
v -7.250000 0.450000 5.500000
v -4.000000 0.450000 -3.250000
v -3.250000 0.450000 2.000000
v 3.250000 0.450000 2.000000
v 17.000000 0.450000 -1.750000
v 17.000000 0.450000 -2.250000
v 16.500000 0.450000 3.000000
v 17.000000 0.450000 1.750000
v 7.250000 0.450000 5.500000
v 15.000000 0.450000 12.250000
v 20.250000 0.950000 -16.000000
v 20.250000 0.950000 -15.000000
v -19.000000 0.450000 -2.250000
v -19.000000 0.450000 1.750000
v -17.000000 0.450000 2.250000
v -16.500000 0.450000 12.250000
v -19.000000 0.450000 -1.750000
v -14.500000 0.450000 13.250000
v -13.000000 0.450000 13.250000
v -11.000000 0.450000 14.250000
v -1.750000 0.450000 9.000000
v -5.000000 0.450000 5.500000
v -1.750000 0.450000 11.500000
v -9.000000 0.450000 15.250000
v -4.000000 0.450000 3.250000
v -4.000000 0.450000 4.500000
v -1.500000 0.450000 8.500000
v 1.250000 0.450000 8.500000
v 4.000000 0.450000 4.500000
v 4.000000 0.450000 3.250000
v 19.000000 0.450000 -2.250000
v 19.000000 0.450000 -1.750000
v 17.000000 0.450000 2.250000
v 16.500000 0.450000 12.250000
v 19.000000 0.450000 1.750000
v 11.000000 0.450000 14.250000
v 13.000000 0.450000 13.250000
v 5.000000 0.450000 5.500000
v 1.500000 0.450000 9.000000
v 1.500000 0.450000 11.250000
v 9.000000 0.450000 15.250000
v 14.500000 0.450000 13.250000
v -19.500000 0.450000 -2.750000
v -19.000000 0.450000 2.250000
v -19.500000 0.450000 1.250000
v -19.500000 0.450000 -1.000000
v -12.500000 0.450000 14.250000
v -10.500000 0.450000 15.250000
v -5.000000 0.450000 17.250000
v -3.250000 0.450000 18.250000
v -7.000000 0.450000 16.250000
v 1.250000 0.450000 11.750000
v -8.500000 0.450000 16.250000
v 19.500000 0.450000 -2.000000
v 19.500000 0.450000 -2.750000
v 19.500000 0.450000 -1.000000
v 19.000000 0.450000 2.250000
v 19.500000 0.450000 2.000000
v 19.500000 0.450000 1.250000
v 10.500000 0.450000 15.250000
v 12.500000 0.450000 14.250000
v 5.250000 0.450000 17.250000
v 7.000000 0.450000 16.250000
v 8.500000 0.450000 16.250000
v -19.500000 0.450000 3.000000
v -4.500000 0.450000 18.250000
v -6.500000 0.450000 17.250000
v -2.500000 0.450000 18.750000
v 2.250000 0.450000 20.000000
v 3.000000 0.450000 18.250000
v 20.250000 0.950000 -2.000000
v 20.250000 0.950000 -1.000000
v 19.500000 0.450000 3.000000
v 20.250000 0.950000 2.000000
v 6.500000 0.450000 17.250000
v 4.500000 0.450000 18.250000
v -2.250000 0.450000 20.000000
v 2.500000 0.450000 21.250000
v 20.250000 0.950000 3.000000
v -2.500000 0.450000 21.500000
v 2.500000 0.450000 26.750000
v 3.750000 0.450000 21.750000
v -3.500000 0.450000 21.750000
v -2.500000 0.450000 26.750000
v 2.000000 0.450000 28.000000
v 3.750000 0.450000 26.750000
v 5.000000 0.450000 21.750000
v -5.000000 0.450000 21.750000
v -3.500000 0.450000 26.750000
v -2.000000 0.450000 28.000000
v 2.500000 0.450000 29.500000
v 7.000000 0.450000 20.750000
v 4.750000 0.450000 27.250000
v 5.500000 0.450000 20.750000
v -5.500000 0.450000 20.750000
v -7.000000 0.450000 20.750000
v -4.750000 0.450000 27.250000
v -2.500000 0.450000 29.500000
v -1.250000 0.700000 32.250000
v 1.250000 0.700000 32.250000
v 3.750000 0.450000 31.500000
v 3.750000 0.450000 30.000000
v 1.750000 0.450000 31.500000
v 4.250000 0.450000 29.500000
v 9.000000 0.450000 19.750000
v 7.500000 0.450000 19.750000
v 4.750000 0.450000 29.000000
v -7.500000 0.450000 19.750000
v -9.000000 0.450000 19.750000
v -6.250000 0.450000 29.750000
v -4.750000 0.450000 29.000000
v -4.250000 0.450000 29.500000
v -3.750000 0.450000 30.000000
v -2.750000 0.450000 31.500000
v -1.750000 0.450000 31.500000
v 4.250000 0.450000 32.250000
v 4.500000 0.450000 32.000000
v 6.250000 0.450000 29.750000
v 19.500000 0.450000 26.000000
v 11.000000 0.450000 18.750000
v 9.500000 0.450000 18.750000
v -9.500000 0.450000 18.750000
v -11.000000 0.450000 18.750000
v -15.500000 0.450000 35.000000
v -6.250000 0.450000 31.750000
v -13.000000 0.450000 17.750000
v -15.000000 0.450000 16.750000
v -16.500000 0.450000 35.000000
v -17.500000 0.450000 35.000000
v -3.750000 0.450000 31.500000
v -3.250000 0.450000 32.250000
v 5.000000 0.450000 32.750000
v 6.250000 0.450000 31.750000
v 13.500000 0.450000 35.000000
v 20.250000 0.950000 26.000000
v 19.500000 0.450000 27.000000
v 19.500000 0.450000 25.000000
v 13.000000 0.450000 17.750000
v 11.500000 0.450000 17.750000
v -11.500000 0.450000 17.750000
v -15.500000 0.950000 35.750000
v -14.500000 0.450000 35.000000
v -5.000000 0.450000 32.750000
v -4.500000 0.450000 32.000000
v -13.500000 0.450000 35.000000
v -12.500000 0.450000 35.000000
v -11.500000 0.450000 35.000000
v -10.500000 0.450000 35.000000
v -9.500000 0.450000 35.000000
v -5.000000 0.450000 34.250000
v -7.500000 0.450000 35.000000
v -8.500000 0.450000 35.000000
v -13.500000 0.450000 16.750000
v -15.500000 0.450000 15.750000
v -17.000000 0.450000 15.750000
v -16.500000 0.950000 35.750000
v -17.500000 0.950000 35.750000
v -18.500000 0.450000 35.750000
v -19.000000 0.450000 14.750000
v -4.250000 0.450000 32.250000
v 5.000000 0.450000 34.250000
v 10.500000 0.450000 35.000000
v 11.500000 0.450000 35.000000
v 9.500000 0.450000 35.000000
v 8.500000 0.450000 35.000000
v 12.500000 0.450000 35.000000
v 7.500000 0.450000 35.000000
v 19.500000 0.450000 30.000000
v 19.500000 0.450000 29.000000
v 19.500000 0.450000 28.000000
v 14.500000 0.450000 35.000000
v 19.500000 0.450000 33.000000
v 19.500000 0.450000 31.000000
v 14.500000 0.950000 35.750000
v 13.500000 0.950000 35.750000
v 20.250000 0.950000 27.000000
v 19.500000 0.450000 24.000000
v 20.250000 0.950000 24.000000
v 20.250000 0.950000 25.000000
v 15.000000 0.450000 16.750000
v 13.500000 0.450000 16.750000
v 19.500000 0.450000 23.000000
v -13.500000 0.950000 35.750000
v -14.500000 0.950000 35.750000
v -11.500000 0.950000 35.750000
v -12.500000 0.950000 35.750000
v -9.500000 0.950000 35.750000
v -10.500000 0.950000 35.750000
v -4.500000 0.450000 35.000000
v -5.500000 0.450000 35.000000
v -6.500000 0.450000 35.000000
v -7.500000 0.950000 35.750000
v -8.500000 0.950000 35.750000
v -17.500000 0.450000 14.750000
v -19.500000 0.450000 37.000000
v -18.500000 0.450000 37.000000
v -19.500000 0.450000 14.250000
v 4.500000 0.450000 35.000000
v 5.500000 0.450000 35.000000
v 6.500000 0.450000 35.000000
v 10.500000 0.950000 35.750000
v 12.500000 0.950000 35.750000
v 11.500000 0.950000 35.750000
v 9.500000 0.950000 35.750000
v 8.500000 0.950000 35.750000
v 7.500000 0.950000 35.750000
v 20.250000 0.950000 30.000000
v 20.250000 0.950000 28.000000
v 20.250000 0.950000 29.000000
v 15.500000 0.450000 35.000000
v 20.250000 0.950000 33.750000
v 20.250000 0.950000 33.000000
v 19.500000 0.450000 34.000000
v 16.500000 0.450000 35.000000
v 17.500000 0.450000 35.000000
v 20.250000 0.950000 31.000000
v 19.500000 0.450000 22.000000
v 19.500000 0.450000 21.000000
v 17.000000 0.450000 15.750000
v 15.500000 0.450000 15.750000
v 19.500000 0.450000 20.000000
v 20.250000 0.950000 22.000000
v 20.250000 0.950000 23.000000
v -5.500000 0.950000 35.750000
v -6.500000 0.950000 35.750000
v 6.500000 0.950000 35.750000
v 5.500000 0.950000 35.750000
v 16.500000 0.950000 35.750000
v 15.500000 0.950000 35.750000
v 19.500000 0.700000 35.000000
v 18.500000 0.450000 35.000000
v 17.500000 0.950000 35.750000
v 18.250000 0.950000 35.750000
v 20.250000 0.950000 20.000000
v 20.250000 0.950000 21.000000
v 19.500000 0.450000 19.000000
v 19.500000 0.450000 18.000000
v 19.000000 0.450000 14.750000
v 17.500000 0.450000 14.750000
v 19.500000 0.450000 17.000000
v 20.250000 0.950000 18.000000
v 20.250000 0.950000 19.000000
v 19.500000 0.450000 14.000000
v 19.500000 0.450000 15.000000
v 19.500000 0.450000 16.000000
v 20.250000 0.950000 16.000000
v 20.250000 0.950000 17.000000
v 20.250000 0.950000 14.000000
v 20.250000 0.950000 15.000000

f 1 2 3
f 3 2 6
f 6 10 11
f 11 10 19
f 11 19 26
f 31 30 15
f 27 11 28
f 28 11 26
f 28 26 42
f 10 18 20
f 19 34 26
f 25 35 19
f 21 36 25
f 37 21 22
f 22 21 10
f 24 38 22
f 41 24 39
f 39 24 23
f 48 39 49
f 49 39 40
f 40 39 23
f 3 6 7
f 7 6 12
f 12 6 13
f 13 6 11
f 20 23 10
f 10 23 24
f 10 24 22
f 40 50 49
f 11 29 14
f 14 29 15
f 15 29 31
f 25 19 10
f 11 14 13
f 13 14 12
f 12 14 7
f 7 14 15
f 10 21 25
f 183 182 160
f 59 68 60
f 60 68 69
f 135 118 134
f 134 118 117
f 95 94 78
f 78 94 96
f 184 202 183
f 183 202 203
f 137 136 122
f 162 185 161
f 161 185 186
f 93 97 92
f 92 97 78
f 140 163 158
f 158 163 181
f 78 96 98
f 137 156 136
f 136 156 157
f 78 71 69
f 69 71 62
f 62 72 70
f 70 72 81
f 72 71 78
f 71 72 62
f 103 124 123
f 123 124 141
f 78 80 92
f 92 80 79
f 92 79 77
f 92 77 93
f 72 83 84
f 84 83 102
f 78 98 99
f 99 104 85
f 85 104 105
f 84 103 101
f 96 119 98
f 98 119 120
f 65 57 58
f 114 113 94
f 94 113 115
f 140 158 139
f 184 183 160
f 95 116 117
f 93 112 97
f 95 114 94
f 61 54 62
f 75 65 66
f 66 65 58
f 66 58 67
f 76 66 70
f 70 66 67
f 70 67 61
f 70 61 62
f 81 82 70
f 100 81 101
f 101 81 84
f 84 81 72
f 121 101 122
f 122 101 123
f 123 101 103
f 138 122 139
f 139 122 140
f 140 122 136
f 159 139 160
f 160 139 161
f 161 139 162
f 95 117 118
f 161 184 160
f 123 137 122
f 68 77 69
f 69 77 79
f 69 79 80
f 69 80 78
f 78 99 85
f 95 118 114
f 78 85 72
f 158 162 139
f 60 53 59
f 59 53 51
f 2 1 4
f 4 1 5
f 52 44 53
f 53 44 51
f 5 8 4
f 4 8 9
f 16 18 9
f 52 54 44
f 44 43 51
f 16 32 33
f 33 32 43
f 33 43 44
f 33 44 45
f 17 16 8
f 8 16 9
f 16 17 32
f 45 46 33
f 33 46 47
f 63 55 64
f 64 55 56
f 50 47 55
f 55 47 46
f 55 46 56
f 56 46 57
f 50 40 47
f 46 58 57
f 89 88 74
f 74 88 90
f 90 88 109
f 87 86 73
f 73 63 64
f 64 74 73
f 73 74 87
f 87 74 91
f 91 74 90
f 91 106 87
f 107 87 108
f 108 87 106
f 128 108 125
f 125 108 106
f 143 142 125
f 164 143 144
f 144 143 126
f 165 144 145
f 145 144 126
f 145 126 146
f 145 146 166
f 147 126 127
f 127 126 106
f 106 126 125
f 125 126 143
f 166 167 145
f 111 110 88
f 88 110 109
f 175 153 154
f 154 153 132
f 132 153 155
f 155 153 176
f 172 154 150
f 150 154 132
f 129 149 150
f 133 129 110
f 110 129 109
f 130 109 131
f 131 109 132
f 132 109 129
f 132 129 150
f 153 177 176
f 171 193 170
f 152 173 174
f 127 148 147
f 147 148 170
f 170 148 171
f 171 148 151
f 171 151 152
f 171 152 174
f 130 131 151
f 151 131 152
f 248 226 249
f 249 226 250
f 223 222 245
f 245 222 246
f 248 249 264
f 264 249 265
f 264 265 270
f 197 196 176
f 176 196 178
f 176 178 155
f 224 198 199
f 199 198 179
f 179 198 180
f 199 226 224
f 224 226 248
f 223 245 247
f 247 245 262
f 247 262 263
f 197 222 196
f 196 222 223
f 178 179 155
f 155 179 180
f 204 208 234
f 234 208 237
f 188 168 189
f 189 168 169
f 169 168 146
f 205 235 236
f 236 235 256
f 235 205 206
f 206 205 188
f 208 204 190
f 190 204 187
f 187 166 168
f 168 166 146
f 168 190 187
f 189 206 188
f 171 174 194
f 194 174 195
f 195 221 220
f 217 216 194
f 212 213 218
f 218 213 217
f 217 194 218
f 218 194 219
f 219 194 220
f 220 194 195
f 230 219 229
f 229 219 220
f 257 240 241
f 241 240 214
f 209 191 210
f 210 191 192
f 192 191 169
f 169 191 189
f 238 210 211
f 211 210 192
f 215 239 211
f 244 215 242
f 242 215 214
f 258 242 240
f 240 242 214
f 213 212 192
f 192 212 214
f 192 214 215
f 192 215 211
f 191 207 189
f 266 253 254
f 254 253 231
f 255 254 232
f 232 254 231
f 227 251 232
f 252 227 228
f 228 227 200
f 233 228 201
f 201 228 200
f 201 200 180
f 201 180 198
f 229 200 230
f 230 200 231
f 231 200 232
f 232 200 227
f 198 225 201
f 267 261 253
f 253 261 243
f 253 243 231
f 260 268 259
f 259 241 260
f 260 241 261
f 261 241 243
f 243 241 214
f 307 308 323
f 323 308 324
f 390 389 352
f 423 406 424
f 424 406 422
f 360 359 325
f 403 402 363
f 363 402 404
f 371 408 373
f 391 417 390
f 390 417 418
f 361 360 325
f 356 396 358
f 358 396 397
f 362 325 363
f 363 325 364
f 353 392 355
f 355 392 395
f 329 368 328
f 357 393 354
f 354 393 394
f 354 353 324
f 362 365 325
f 325 365 366
f 359 364 325
f 405 419 401
f 401 419 420
f 371 409 408
f 359 398 364
f 364 398 407
f 363 401 362
f 361 399 360
f 360 399 400
f 353 355 324
f 310 326 327
f 327 326 367
f 277 273 278
f 368 369 328
f 328 369 370
f 410 427 412
f 408 413 373
f 373 413 414
f 355 356 324
f 412 425 409
f 409 425 426
f 363 405 401
f 428 432 427
f 427 432 433
f 410 428 427
f 436 437 431
f 431 437 438
f 327 361 325
f 429 434 435
f 435 434 439
f 435 439 440
f 327 325 310
f 310 325 309
f 310 309 296
f 310 296 311
f 357 354 324
f 436 429 435
f 404 421 422
f 404 406 363
f 363 406 405
f 309 295 298
f 391 390 352
f 404 422 406
f 430 429 410
f 410 429 431
f 410 431 428
f 411 410 371
f 371 410 412
f 371 412 409
f 372 371 329
f 329 371 373
f 329 373 368
f 330 329 311
f 311 329 328
f 311 328 310
f 296 312 311
f 297 296 283
f 283 296 284
f 284 296 298
f 298 296 309
f 285 283 278
f 278 283 277
f 277 283 284
f 429 436 431
f 358 391 352
f 323 324 352
f 352 324 358
f 358 324 356
f 357 324 325
f 325 324 309
f 341 380 381
f 351 334 335
f 335 334 316
f 320 348 349
f 315 332 319
f 319 332 347
f 333 315 316
f 316 315 301
f 336 374 333
f 333 374 375
f 336 316 337
f 338 376 337
f 337 376 377
f 316 338 337
f 340 378 339
f 339 378 379
f 318 317 301
f 342 383 343
f 343 383 384
f 316 339 338
f 381 415 382
f 382 415 416
f 301 315 319
f 387 386 349
f 349 386 350
f 350 386 388
f 316 340 339
f 302 303 301
f 341 381 382
f 286 279 287
f 287 279 280
f 287 280 288
f 299 287 300
f 300 287 288
f 314 313 300
f 331 314 317
f 317 314 301
f 318 344 317
f 346 345 318
f 385 346 350
f 350 346 320
f 350 320 349
f 341 382 342
f 334 341 316
f 316 341 342
f 316 342 343
f 302 301 288
f 288 301 300
f 300 301 314
f 316 336 333
f 319 320 301
f 301 320 318
f 318 320 346
f 316 343 340
f 279 274 280
f 281 275 276
f 276 275 272
f 260 269 268
f 268 269 271
f 273 277 272
f 274 271 275
f 275 271 272
f 272 271 269
f 272 269 273
f 275 280 274
f 308 307 292
f 292 307 294
f 335 321 351
f 351 321 322
f 293 292 282
f 282 292 294
f 322 321 305
f 305 321 304
f 282 295 293
f 304 303 289
f 282 294 291
f 289 281 290
f 290 281 291
f 291 281 282
f 282 281 276
f 306 305 289
f 289 305 304
f 289 290 306
