<svg id="Layer_1" data-name="Layer 1" xmlns="http://www.w3.org/2000/svg" viewBox="0 0 15.699 12.31"><title>Bounce_ForExport</title><path d="M11.028,5A5.5,5.5,0,0,0,5.912,8.827c-.16-.259-.343-.658-.616-1.074,0,.04,0,.08,0,.121-.023.314-.064.627-.111.94-.021.3-.034.61-.051.916A5.02,5.02,0,0,1,4.9,11.223c.059.727.087,1.486.109,2.245-.006.226-.027.451-.016,1.124h2.22c.095-1.627.091-4.022,2.63-5.909a1.71,1.71,0,0,1-.079-.727A3.09,3.09,0,0,1,11.028,5Z" transform="translate(-0.091 -2.282)" style="fill:#ee478b"/><path d="M12.115,4.921a2.041,2.041,0,1,1-1.443.6,2.024,2.024,0,0,1,1.443-.6m0-1.23a3.271,3.271,0,1,0,2.312.958,3.26,3.26,0,0,0-2.312-.958Z" transform="translate(-0.091 -2.282)" style="fill:#ee478b;stroke:#ee478b;stroke-miterlimit:10;stroke-width:0.5px"/><path d="M14.87,4.251l-.086-.091c-.324-.34-1.29-1.574-1.29-1.574q-.058.057-.114.123l-.231.281L12.8,2.9a5.633,5.633,0,0,0-.787-.123,3.131,3.131,0,0,1-1.6-.5,1.463,1.463,0,0,0-.129.418l-.042.451-.448.061A7.231,7.231,0,0,0,5.819,5.068a1.664,1.664,0,0,1,1.364.49,2.151,2.151,0,0,1,.275.354A6.139,6.139,0,0,0,5.9,8.16a10.051,10.051,0,0,0-.727-.9A5.076,5.076,0,0,0,3.82,6.246a2.8,2.8,0,0,0-1.652-.273,2.479,2.479,0,0,0-1.441.765,2.414,2.414,0,0,1,1.457-.625,2.594,2.594,0,0,1,1.5.382,4.728,4.728,0,0,1,1.169,1.05,10.417,10.417,0,0,1,.809,1.232,11.688,11.688,0,0,0-.346,1.264,17.747,17.747,0,0,0-.326,4.551,17.567,17.567,0,0,1,.691-4.458A7.155,7.155,0,0,1,7.7,6.712a1.963,1.963,0,0,1-.067.385A2.746,2.746,0,0,1,6.443,8.56l.325.031a3.134,3.134,0,0,1,2.119.91,3.072,3.072,0,0,0-.725.378,3.07,3.07,0,0,1,2,.793,1.253,1.253,0,0,1,.413,1.039,4.356,4.356,0,0,0,.852-.39,6.453,6.453,0,0,1,1.076-.5l.03-.01.031-.006A4.069,4.069,0,0,0,14.87,4.251Zm-.583,4.883a3.072,3.072,0,1,1,0-4.345A3.072,3.072,0,0,1,14.287,9.134Z" transform="translate(-0.091 -2.282)" style="fill:#ffcc2c"/><path d="M.8,6.667c-.01.01-.025.016-.036.027s-.016.021-.026.031C.76,6.7.784,6.687.8,6.667Z" transform="translate(-0.091 -2.282)" style="fill:#ee478b"/><path d="M5.319,10.041a11.688,11.688,0,0,1,.346-1.264,10.417,10.417,0,0,0-.809-1.232A4.728,4.728,0,0,0,3.687,6.5a2.594,2.594,0,0,0-1.5-.382,2.413,2.413,0,0,0-1.448.618c-.854.873-1.077,2.33.691,3.262L.744,11.24c.116.043,1.109-.451,1.6.035.16.186.156.714-.354,1.189.382-.294.725-1.08.463-1.328s-.361-.31-1.108-.293a9.978,9.978,0,0,1,1.3-1.817C.485,10.472.591,5.812,3.277,7.105c1.448.945,1.631,3.318,1.712,5.757A16.51,16.51,0,0,1,5.319,10.041Z" transform="translate(-0.091 -2.282)" style="fill:#ee478b"/><path d="M6.82,11.769a8.9,8.9,0,0,1-.811-2.556c-.123.3-.232.609-.325.921a17.567,17.567,0,0,0-.691,4.458l1.035-1.073c.032-.568.759-.53.881-1.231C6.692,12.013,6.981,12.092,6.82,11.769Z" transform="translate(-0.091 -2.282)" style="fill:#ee478b"/></svg>