{
	"asset":{
		"generator":"Khronos glTF Blender I/O v4.1.63",
		"version":"2.0"
	},
	"extensionsUsed":[
		"EXT_texture_webp",
		"KHR_materials_specular",
		"KHR_materials_ior"
	],
	"extensionsRequired":[
		"EXT_texture_webp"
	],
	"scene":0,
	"scenes":[
		{
			"name":"Scene",
			"nodes":[
				0,
				1,
				2,
				3,
				4,
				5,
				6
			]
		}
	],
	"nodes":[
		{
			"mesh":0,
			"name":"Core"
		},
		{
			"mesh":1,
			"name":"Portal.Banners"
		},
		{
			"mesh":2,
			"name":"Portal"
		},
		{
			"mesh":3,
			"name":"MinorCrystals"
		},
		{
			"mesh":4,
			"name":"CoreTower02"
		},
		{
			"mesh":5,
			"name":"GoldenRings.Small"
		},
		{
			"mesh":6,
			"name":"GondelRings.Core"
		}
	],
	"materials":[
		{
			"doubleSided":true,
			"emissiveTexture":{
				"index":0
			},
			"extensions":{
				"KHR_materials_specular":{
					"specularFactor":0
				},
				"KHR_materials_ior":{
					"ior":1.7000000476837158
				}
			},
			"name":"Mat.CrystalCore",
			"normalTexture":{
				"index":1
			},
			"pbrMetallicRoughness":{
				"baseColorTexture":{
					"index":2
				},
				"metallicFactor":0.35433071851730347,
				"metallicRoughnessTexture":{
					"index":3
				}
			}
		},
		{
			"doubleSided":true,
			"name":"Mat.Banners.Portal",
			"pbrMetallicRoughness":{
				"metallicFactor":0.03937007859349251,
				"roughnessFactor":0.5479957461357117
			}
		},
		{
			"doubleSided":true,
			"name":"Mat.Portal",
			"normalTexture":{
				"index":4
			},
			"pbrMetallicRoughness":{
				"baseColorTexture":{
					"index":5
				},
				"metallicFactor":0.10000000149011612,
				"metallicRoughnessTexture":{
					"index":6
				}
			}
		},
		{
			"doubleSided":true,
			"emissiveTexture":{
				"index":7
			},
			"extensions":{
				"KHR_materials_specular":{
					"specularFactor":0
				},
				"KHR_materials_ior":{
					"ior":1.7000000476837158
				}
			},
			"name":"Mat.Crystals",
			"pbrMetallicRoughness":{
				"baseColorTexture":{
					"index":8
				},
				"metallicFactor":0.35433071851730347,
				"roughnessFactor":0.06614169478416443
			}
		},
		{
			"doubleSided":true,
			"name":"Mat.CoreTower",
			"normalTexture":{
				"index":9
			},
			"pbrMetallicRoughness":{
				"baseColorTexture":{
					"index":10
				},
				"metallicFactor":0.10000000149011612,
				"metallicRoughnessTexture":{
					"index":11
				}
			}
		},
		{
			"doubleSided":true,
			"name":"Mat.GoldenRing",
			"pbrMetallicRoughness":{
				"baseColorTexture":{
					"index":12
				},
				"roughnessFactor":0.31102362275123596
			}
		},
		{
			"doubleSided":true,
			"name":"Mat.GoldenRingsCore",
			"pbrMetallicRoughness":{
				"baseColorTexture":{
					"index":13
				},
				"roughnessFactor":0.31102362275123596
			}
		}
	],
	"meshes":[
		{
			"name":"Core",
			"primitives":[
				{
					"attributes":{
						"POSITION":0,
						"NORMAL":1,
						"TEXCOORD_0":2
					},
					"indices":3,
					"material":0
				}
			]
		},
		{
			"name":"BannersPortal",
			"primitives":[
				{
					"attributes":{
						"POSITION":4,
						"NORMAL":5,
						"TEXCOORD_0":6
					},
					"indices":7,
					"material":1
				}
			]
		},
		{
			"name":"Portal",
			"primitives":[
				{
					"attributes":{
						"POSITION":8,
						"NORMAL":9,
						"TEXCOORD_0":10
					},
					"indices":11,
					"material":2
				}
			]
		},
		{
			"name":"Crystals.001",
			"primitives":[
				{
					"attributes":{
						"POSITION":12,
						"NORMAL":13,
						"TEXCOORD_0":14
					},
					"indices":15,
					"material":3
				}
			]
		},
		{
			"name":"CoreTowers02",
			"primitives":[
				{
					"attributes":{
						"POSITION":16,
						"NORMAL":17,
						"TEXCOORD_0":18
					},
					"indices":19,
					"material":4
				}
			]
		},
		{
			"name":"GoldenRings.Small",
			"primitives":[
				{
					"attributes":{
						"POSITION":20,
						"NORMAL":21,
						"TEXCOORD_0":22
					},
					"indices":23,
					"material":5
				}
			]
		},
		{
			"name":"GoldenRing.PortalCore",
			"primitives":[
				{
					"attributes":{
						"POSITION":24,
						"NORMAL":25,
						"TEXCOORD_0":26
					},
					"indices":27,
					"material":6
				}
			]
		}
	],
	"textures":[
		{
			"extensions":{
				"EXT_texture_webp":{
					"source":0
				}
			},
			"sampler":0
		},
		{
			"extensions":{
				"EXT_texture_webp":{
					"source":1
				}
			},
			"sampler":0
		},
		{
			"extensions":{
				"EXT_texture_webp":{
					"source":2
				}
			},
			"sampler":0
		},
		{
			"sampler":0,
			"source":3
		},
		{
			"extensions":{
				"EXT_texture_webp":{
					"source":4
				}
			},
			"sampler":0
		},
		{
			"extensions":{
				"EXT_texture_webp":{
					"source":5
				}
			},
			"sampler":0
		},
		{
			"sampler":0,
			"source":6
		},
		{
			"extensions":{
				"EXT_texture_webp":{
					"source":7
				}
			},
			"sampler":0
		},
		{
			"extensions":{
				"EXT_texture_webp":{
					"source":7
				}
			},
			"sampler":0
		},
		{
			"extensions":{
				"EXT_texture_webp":{
					"source":8
				}
			},
			"sampler":0
		},
		{
			"extensions":{
				"EXT_texture_webp":{
					"source":9
				}
			},
			"sampler":0
		},
		{
			"sampler":0,
			"source":10
		},
		{
			"extensions":{
				"EXT_texture_webp":{
					"source":11
				}
			},
			"sampler":0
		},
		{
			"extensions":{
				"EXT_texture_webp":{
					"source":12
				}
			},
			"sampler":0
		}
	],
	"images":[
		{
			"mimeType":"image/webp",
			"name":"Tex.AO",
			"uri":"Tex_AO.webp"
		},
		{
			"mimeType":"image/webp",
			"name":"Tex.Normal",
			"uri":"Tex_Normal.webp"
		},
		{
			"mimeType":"image/webp",
			"name":"Tex.Diffuse",
			"uri":"Tex_Diffuse.webp"
		},
		{
			"mimeType":"image/png",
			"name":"Tex.Roughness",
			"uri":"Tex_Roughness.png"
		},
		{
			"mimeType":"image/webp",
			"name":"Tex.Normal",
			"uri":"Tex_Normal-1.webp"
		},
		{
			"mimeType":"image/webp",
			"name":"Tex.Diffuse",
			"uri":"Tex_Diffuse-1.webp"
		},
		{
			"mimeType":"image/png",
			"name":"Tex.Roughness",
			"uri":"Tex_Roughness-1.png"
		},
		{
			"mimeType":"image/webp",
			"name":"Tex.Diffuse",
			"uri":"Tex_Diffuse-2.webp"
		},
		{
			"mimeType":"image/webp",
			"name":"Tex.Normal",
			"uri":"Tex_Normal-2.webp"
		},
		{
			"mimeType":"image/webp",
			"name":"Tex.Diffuse",
			"uri":"Tex_Diffuse-3.webp"
		},
		{
			"mimeType":"image/png",
			"name":"Tex.Roughness",
			"uri":"Tex_Roughness-2.png"
		},
		{
			"mimeType":"image/webp",
			"name":"Tex.Combined",
			"uri":"Tex_Combined.webp"
		},
		{
			"mimeType":"image/webp",
			"name":"Tex.Deffusion",
			"uri":"Tex_Deffusion.webp"
		}
	],
	"accessors":[
		{
			"bufferView":0,
			"componentType":5126,
			"count":1014,
			"max":[
				1.1806135177612305,
				7.782047271728516,
				1.1044713258743286
			],
			"min":[
				-1.1472947597503662,
				0.42940592765808105,
				-1.22002375125885
			],
			"type":"VEC3"
		},
		{
			"bufferView":1,
			"componentType":5126,
			"count":1014,
			"type":"VEC3"
		},
		{
			"bufferView":2,
			"componentType":5126,
			"count":1014,
			"type":"VEC2"
		},
		{
			"bufferView":3,
			"componentType":5123,
			"count":1518,
			"type":"SCALAR"
		},
		{
			"bufferView":4,
			"componentType":5126,
			"count":484,
			"max":[
				4.024073123931885,
				5.150677680969238,
				0.8000452518463135
			],
			"min":[
				-4.024073123931885,
				0.5175262689590454,
				-1.2845242023468018
			],
			"type":"VEC3"
		},
		{
			"bufferView":5,
			"componentType":5126,
			"count":484,
			"type":"VEC3"
		},
		{
			"bufferView":6,
			"componentType":5126,
			"count":484,
			"type":"VEC2"
		},
		{
			"bufferView":7,
			"componentType":5123,
			"count":2400,
			"type":"SCALAR"
		},
		{
			"bufferView":8,
			"componentType":5126,
			"count":2132,
			"max":[
				4.343151092529297,
				5.671345233917236,
				1.296159267425537
			],
			"min":[
				-4.343151092529297,
				-0.020243268460035324,
				-1.599454641342163
			],
			"type":"VEC3"
		},
		{
			"bufferView":9,
			"componentType":5126,
			"count":2132,
			"type":"VEC3"
		},
		{
			"bufferView":10,
			"componentType":5126,
			"count":2132,
			"type":"VEC2"
		},
		{
			"bufferView":11,
			"componentType":5123,
			"count":3858,
			"type":"SCALAR"
		},
		{
			"bufferView":12,
			"componentType":5126,
			"count":1584,
			"max":[
				5.4550580978393555,
				6.724575519561768,
				0.1878831386566162
			],
			"min":[
				-5.4550580978393555,
				3.194949150085449,
				-5.72633171081543
			],
			"type":"VEC3"
		},
		{
			"bufferView":13,
			"componentType":5126,
			"count":1584,
			"type":"VEC3"
		},
		{
			"bufferView":14,
			"componentType":5126,
			"count":1584,
			"type":"VEC2"
		},
		{
			"bufferView":15,
			"componentType":5123,
			"count":1584,
			"type":"SCALAR"
		},
		{
			"bufferView":16,
			"componentType":5126,
			"count":1492,
			"max":[
				5.6872358322143555,
				3.939915180206299,
				-2.0891966819763184
			],
			"min":[
				-5.6872358322143555,
				-0.0038247108459472656,
				-6.017411231994629
			],
			"type":"VEC3"
		},
		{
			"bufferView":17,
			"componentType":5126,
			"count":1492,
			"type":"VEC3"
		},
		{
			"bufferView":18,
			"componentType":5126,
			"count":1492,
			"type":"VEC2"
		},
		{
			"bufferView":19,
			"componentType":5123,
			"count":2448,
			"type":"SCALAR"
		},
		{
			"bufferView":20,
			"componentType":5126,
			"count":2646,
			"max":[
				5.67722749710083,
				6.213435173034668,
				0.36064696311950684
			],
			"min":[
				-5.67722749710083,
				3.834261655807495,
				-5.873538017272949
			],
			"type":"VEC3"
		},
		{
			"bufferView":21,
			"componentType":5126,
			"count":2646,
			"type":"VEC3"
		},
		{
			"bufferView":22,
			"componentType":5126,
			"count":2646,
			"type":"VEC2"
		},
		{
			"bufferView":23,
			"componentType":5123,
			"count":8640,
			"type":"SCALAR"
		},
		{
			"bufferView":24,
			"componentType":5126,
			"count":882,
			"max":[
				1.4640631675720215,
				7.030351638793945,
				1.5063573122024536
			],
			"min":[
				-1.4640631675720215,
				5.869160175323486,
				-1.4217690229415894
			],
			"type":"VEC3"
		},
		{
			"bufferView":25,
			"componentType":5126,
			"count":882,
			"type":"VEC3"
		},
		{
			"bufferView":26,
			"componentType":5126,
			"count":882,
			"type":"VEC2"
		},
		{
			"bufferView":27,
			"componentType":5123,
			"count":2880,
			"type":"SCALAR"
		}
	],
	"bufferViews":[
		{
			"buffer":0,
			"byteLength":12168,
			"byteOffset":0,
			"target":34962
		},
		{
			"buffer":0,
			"byteLength":12168,
			"byteOffset":12168,
			"target":34962
		},
		{
			"buffer":0,
			"byteLength":8112,
			"byteOffset":24336,
			"target":34962
		},
		{
			"buffer":0,
			"byteLength":3036,
			"byteOffset":32448,
			"target":34963
		},
		{
			"buffer":0,
			"byteLength":5808,
			"byteOffset":35484,
			"target":34962
		},
		{
			"buffer":0,
			"byteLength":5808,
			"byteOffset":41292,
			"target":34962
		},
		{
			"buffer":0,
			"byteLength":3872,
			"byteOffset":47100,
			"target":34962
		},
		{
			"buffer":0,
			"byteLength":4800,
			"byteOffset":50972,
			"target":34963
		},
		{
			"buffer":0,
			"byteLength":25584,
			"byteOffset":55772,
			"target":34962
		},
		{
			"buffer":0,
			"byteLength":25584,
			"byteOffset":81356,
			"target":34962
		},
		{
			"buffer":0,
			"byteLength":17056,
			"byteOffset":106940,
			"target":34962
		},
		{
			"buffer":0,
			"byteLength":7716,
			"byteOffset":123996,
			"target":34963
		},
		{
			"buffer":0,
			"byteLength":19008,
			"byteOffset":131712,
			"target":34962
		},
		{
			"buffer":0,
			"byteLength":19008,
			"byteOffset":150720,
			"target":34962
		},
		{
			"buffer":0,
			"byteLength":12672,
			"byteOffset":169728,
			"target":34962
		},
		{
			"buffer":0,
			"byteLength":3168,
			"byteOffset":182400,
			"target":34963
		},
		{
			"buffer":0,
			"byteLength":17904,
			"byteOffset":185568,
			"target":34962
		},
		{
			"buffer":0,
			"byteLength":17904,
			"byteOffset":203472,
			"target":34962
		},
		{
			"buffer":0,
			"byteLength":11936,
			"byteOffset":221376,
			"target":34962
		},
		{
			"buffer":0,
			"byteLength":4896,
			"byteOffset":233312,
			"target":34963
		},
		{
			"buffer":0,
			"byteLength":31752,
			"byteOffset":238208,
			"target":34962
		},
		{
			"buffer":0,
			"byteLength":31752,
			"byteOffset":269960,
			"target":34962
		},
		{
			"buffer":0,
			"byteLength":21168,
			"byteOffset":301712,
			"target":34962
		},
		{
			"buffer":0,
			"byteLength":17280,
			"byteOffset":322880,
			"target":34963
		},
		{
			"buffer":0,
			"byteLength":10584,
			"byteOffset":340160,
			"target":34962
		},
		{
			"buffer":0,
			"byteLength":10584,
			"byteOffset":350744,
			"target":34962
		},
		{
			"buffer":0,
			"byteLength":7056,
			"byteOffset":361328,
			"target":34962
		},
		{
			"buffer":0,
			"byteLength":5760,
			"byteOffset":368384,
			"target":34963
		}
	],
	"samplers":[
		{
			"magFilter":9729,
			"minFilter":9987
		}
	],
	"buffers":[
		{
			"byteLength":374144,
			"uri":"core.bin"
		}
	]
}
