{
	"asset":{
		"generator":"Khronos glTF Blender I/O v4.1.63",
		"version":"2.0"
	},
	"extensionsUsed":[
		"EXT_texture_webp",
		"KHR_materials_transmission",
		"KHR_materials_specular",
		"KHR_materials_anisotropy"
	],
	"scene":0,
	"scenes":[
		{
			"name":"Scene",
			"nodes":[
				0,
				1,
				2,
				3,
				4,
				5
			]
		}
	],
	"nodes":[
		{
			"mesh":0,
			"name":"Cylinder"
		},
		{
			"mesh":1,
			"name":"Main Structure"
		},
		{
			"mesh":2,
			"name":"Base Cristal"
		},
		{
			"mesh":3,
			"name":"Main Cristal"
		},
		{
			"mesh":4,
			"name":"Upper Crystals"
		},
		{
			"mesh":5,
			"name":"Banners",
			"rotation":[
				0,
				-0.7071068286895752,
				0,
				0.7071068286895752
			]
		}
	],
	"materials":[
		{
			"doubleSided":true,
			"name":"Mat_Tower",
			"pbrMetallicRoughness":{
				"baseColorTexture":{
					"index":0
				},
				"metallicFactor":0,
				"roughnessFactor":0.5
			}
		},
		{
			"doubleSided":true,
			"emissiveFactor":[
				0.19999998807907104,
				0.19999998807907104,
				0.19999998807907104
			],
			"extensions":{
				"KHR_materials_transmission":{
					"transmissionFactor":0.5090909004211426
				},
				"KHR_materials_specular":{
					"specularColorFactor":[
						1.336363673210144,
						1.336363673210144,
						1.336363673210144
					]
				},
				"KHR_materials_anisotropy":{
					"anisotropyStrength":0.4318181872367859
				}
			},
			"name":"Mat_TowerCrystal",
			"pbrMetallicRoughness":{
				"baseColorTexture":{
					"index":1
				},
				"metallicFactor":0.41886183619499207,
				"roughnessFactor":0.3498210608959198
			}
		},
		{
			"doubleSided":true,
			"name":"Mat_Banner",
			"pbrMetallicRoughness":{
				"baseColorTexture":{
					"index":2
				},
				"metallicFactor":0.04724409431219101,
				"roughnessFactor":0.6889763474464417
			}
		}
	],
	"meshes":[
		{
			"name":"Cylinder",
			"primitives":[
				{
					"attributes":{
						"POSITION":0,
						"NORMAL":1,
						"TEXCOORD_0":2
					},
					"indices":3,
					"material":0
				}
			]
		},
		{
			"name":"Main.Structure",
			"primitives":[
				{
					"attributes":{
						"POSITION":4,
						"NORMAL":5,
						"TEXCOORD_0":6
					},
					"indices":7,
					"material":0
				}
			]
		},
		{
			"name":"Base.Crystal",
			"primitives":[
				{
					"attributes":{
						"POSITION":8,
						"NORMAL":9,
						"TEXCOORD_0":10
					},
					"indices":11,
					"material":0
				}
			]
		},
		{
			"name":"Main.Crystal",
			"primitives":[
				{
					"attributes":{
						"POSITION":12,
						"NORMAL":13,
						"TEXCOORD_0":14
					},
					"indices":15,
					"material":1
				}
			]
		},
		{
			"name":"Upper.Crystals",
			"primitives":[
				{
					"attributes":{
						"POSITION":16,
						"NORMAL":17,
						"TEXCOORD_0":18
					},
					"indices":19,
					"material":0
				}
			]
		},
		{
			"name":"Banners",
			"primitives":[
				{
					"attributes":{
						"POSITION":20,
						"NORMAL":21,
						"TEXCOORD_0":22
					},
					"indices":23,
					"material":2
				}
			]
		}
	],
	"textures":[
		{
			"extensions":{
				"EXT_texture_webp":{
					"source":0
				}
			},
			"sampler":0,
			"source":1
		},
		{
			"extensions":{
				"EXT_texture_webp":{
					"source":2
				}
			},
			"sampler":0,
			"source":3
		},
		{
			"extensions":{
				"EXT_texture_webp":{
					"source":4
				}
			},
			"sampler":0,
			"source":5
		}
	],
	"images":[
		{
			"mimeType":"image/webp",
			"name":"tower_final_texture",
			"uri":"tower_final_texture.webp"
		},
		{
			"mimeType":"image/png",
			"name":"tower_final_texture",
			"uri":"tower_final_texture.png"
		},
		{
			"mimeType":"image/webp",
			"name":"towerCrystal_texture",
			"uri":"towerCrystal_texture.webp"
		},
		{
			"mimeType":"image/png",
			"name":"towerCrystal_texture",
			"uri":"towerCrystal_texture.png"
		},
		{
			"mimeType":"image/webp",
			"name":"banner_texture_tower",
			"uri":"banner_texture_tower.webp"
		},
		{
			"mimeType":"image/png",
			"name":"banner_texture_tower",
			"uri":"banner_texture_tower.png"
		}
	],
	"accessors":[
		{
			"bufferView":0,
			"componentType":5126,
			"count":396,
			"max":[
				0.7771434187889099,
				1.9915432929992676,
				0.7771434187889099
			],
			"min":[
				-0.7773460149765015,
				1.6095517873764038,
				-0.777420163154602
			],
			"type":"VEC3"
		},
		{
			"bufferView":1,
			"componentType":5126,
			"count":396,
			"type":"VEC3"
		},
		{
			"bufferView":2,
			"componentType":5126,
			"count":396,
			"type":"VEC2"
		},
		{
			"bufferView":3,
			"componentType":5123,
			"count":1152,
			"type":"SCALAR"
		},
		{
			"bufferView":4,
			"componentType":5126,
			"count":731,
			"max":[
				0.800000011920929,
				4.400000095367432,
				0.800000011920929
			],
			"min":[
				-0.800000011920929,
				0,
				-0.800000011920929
			],
			"type":"VEC3"
		},
		{
			"bufferView":5,
			"componentType":5126,
			"count":731,
			"type":"VEC3"
		},
		{
			"bufferView":6,
			"componentType":5126,
			"count":731,
			"type":"VEC2"
		},
		{
			"bufferView":7,
			"componentType":5123,
			"count":2268,
			"type":"SCALAR"
		},
		{
			"bufferView":8,
			"componentType":5126,
			"count":384,
			"max":[
				1.0000205039978027,
				0.9500000476837158,
				1.0000203847885132
			],
			"min":[
				-1.0000203847885132,
				0,
				-1.0000202655792236
			],
			"type":"VEC3"
		},
		{
			"bufferView":9,
			"componentType":5126,
			"count":384,
			"type":"VEC3"
		},
		{
			"bufferView":10,
			"componentType":5126,
			"count":384,
			"type":"VEC2"
		},
		{
			"bufferView":11,
			"componentType":5123,
			"count":552,
			"type":"SCALAR"
		},
		{
			"bufferView":12,
			"componentType":5126,
			"count":96,
			"max":[
				0.5148963928222656,
				5.194457530975342,
				0.48429641127586365
			],
			"min":[
				-0.4990122318267822,
				4.237131118774414,
				-0.46488267183303833
			],
			"type":"VEC3"
		},
		{
			"bufferView":13,
			"componentType":5126,
			"count":96,
			"type":"VEC3"
		},
		{
			"bufferView":14,
			"componentType":5126,
			"count":96,
			"type":"VEC2"
		},
		{
			"bufferView":15,
			"componentType":5123,
			"count":96,
			"type":"SCALAR"
		},
		{
			"bufferView":16,
			"componentType":5126,
			"count":224,
			"max":[
				0.7000000476837158,
				4.550000190734863,
				0.699999988079071
			],
			"min":[
				-0.7000000476837158,
				3.5999999046325684,
				-0.699999988079071
			],
			"type":"VEC3"
		},
		{
			"bufferView":17,
			"componentType":5126,
			"count":224,
			"type":"VEC3"
		},
		{
			"bufferView":18,
			"componentType":5126,
			"count":224,
			"type":"VEC2"
		},
		{
			"bufferView":19,
			"componentType":5123,
			"count":288,
			"type":"SCALAR"
		},
		{
			"bufferView":20,
			"componentType":5126,
			"count":984,
			"max":[
				0.8260765075683594,
				3.9737274646759033,
				0.8260765075683594
			],
			"min":[
				-0.8260765075683594,
				0.010388430207967758,
				-0.8260765671730042
			],
			"type":"VEC3"
		},
		{
			"bufferView":21,
			"componentType":5126,
			"count":984,
			"type":"VEC3"
		},
		{
			"bufferView":22,
			"componentType":5126,
			"count":984,
			"type":"VEC2"
		},
		{
			"bufferView":23,
			"componentType":5123,
			"count":3888,
			"type":"SCALAR"
		}
	],
	"bufferViews":[
		{
			"buffer":0,
			"byteLength":4752,
			"byteOffset":0,
			"target":34962
		},
		{
			"buffer":0,
			"byteLength":4752,
			"byteOffset":4752,
			"target":34962
		},
		{
			"buffer":0,
			"byteLength":3168,
			"byteOffset":9504,
			"target":34962
		},
		{
			"buffer":0,
			"byteLength":2304,
			"byteOffset":12672,
			"target":34963
		},
		{
			"buffer":0,
			"byteLength":8772,
			"byteOffset":14976,
			"target":34962
		},
		{
			"buffer":0,
			"byteLength":8772,
			"byteOffset":23748,
			"target":34962
		},
		{
			"buffer":0,
			"byteLength":5848,
			"byteOffset":32520,
			"target":34962
		},
		{
			"buffer":0,
			"byteLength":4536,
			"byteOffset":38368,
			"target":34963
		},
		{
			"buffer":0,
			"byteLength":4608,
			"byteOffset":42904,
			"target":34962
		},
		{
			"buffer":0,
			"byteLength":4608,
			"byteOffset":47512,
			"target":34962
		},
		{
			"buffer":0,
			"byteLength":3072,
			"byteOffset":52120,
			"target":34962
		},
		{
			"buffer":0,
			"byteLength":1104,
			"byteOffset":55192,
			"target":34963
		},
		{
			"buffer":0,
			"byteLength":1152,
			"byteOffset":56296,
			"target":34962
		},
		{
			"buffer":0,
			"byteLength":1152,
			"byteOffset":57448,
			"target":34962
		},
		{
			"buffer":0,
			"byteLength":768,
			"byteOffset":58600,
			"target":34962
		},
		{
			"buffer":0,
			"byteLength":192,
			"byteOffset":59368,
			"target":34963
		},
		{
			"buffer":0,
			"byteLength":2688,
			"byteOffset":59560,
			"target":34962
		},
		{
			"buffer":0,
			"byteLength":2688,
			"byteOffset":62248,
			"target":34962
		},
		{
			"buffer":0,
			"byteLength":1792,
			"byteOffset":64936,
			"target":34962
		},
		{
			"buffer":0,
			"byteLength":576,
			"byteOffset":66728,
			"target":34963
		},
		{
			"buffer":0,
			"byteLength":11808,
			"byteOffset":67304,
			"target":34962
		},
		{
			"buffer":0,
			"byteLength":11808,
			"byteOffset":79112,
			"target":34962
		},
		{
			"buffer":0,
			"byteLength":7872,
			"byteOffset":90920,
			"target":34962
		},
		{
			"buffer":0,
			"byteLength":7776,
			"byteOffset":98792,
			"target":34963
		}
	],
	"samplers":[
		{
			"magFilter":9729,
			"minFilter":9987
		}
	],
	"buffers":[
		{
			"byteLength":106568,
			"uri":"tower.bin"
		}
	]
}
