<?xml version="1.0" encoding="UTF-8" standalone="no"?>
<svg
   height="16"
   viewBox="0 0 16 16"
   width="16"
   version="1.1"
   id="svg4"
   sodipodi:docname="SliderLabel.svg"
   inkscape:version="1.1.1 (3bf5ae0d25, 2021-09-20)"
   xmlns:inkscape="http://www.inkscape.org/namespaces/inkscape"
   xmlns:sodipodi="http://sodipodi.sourceforge.net/DTD/sodipodi-0.dtd"
   xmlns="http://www.w3.org/2000/svg"
   xmlns:svg="http://www.w3.org/2000/svg">
  <defs
     id="defs8" />
  <sodipodi:namedview
     id="namedview6"
     pagecolor="#505050"
     bordercolor="#ffffff"
     borderopacity="1"
     inkscape:pageshadow="0"
     inkscape:pageopacity="0"
     inkscape:pagecheckerboard="1"
     showgrid="false"
     inkscape:zoom="1"
     inkscape:cx="5.5"
     inkscape:cy="7.5"
     inkscape:window-width="1920"
     inkscape:window-height="1001"
     inkscape:window-x="-9"
     inkscape:window-y="-9"
     inkscape:window-maximized="1"
     inkscape:current-layer="svg4" />
  <path
     d="m 2.6377388,6.6941254 c -0.4898488,0 -0.8869572,0.3971086 -0.8869572,0.8869574 v 1.7739137 c 0,0.4898499 0.3971084,0.8869575 0.8869572,0.8869575 0.4898486,0 0.8869572,-0.3971076 0.8869572,-0.8869575 V 7.5810828 c 0,-0.4898488 -0.3971086,-0.8869574 -0.8869572,-0.8869574 z m 10.6434862,0 c -0.489848,0 -0.886958,0.3971086 -0.886958,0.8869574 v 1.7739137 c 0,0.4898499 0.39711,0.8869575 0.886958,0.8869575 0.489849,0 0.886957,-0.3971076 0.886957,-0.8869575 V 7.5810828 c 0,-0.4898488 -0.397108,-0.8869574 -0.886957,-0.8869574 z M 7.9594818,7.5810828 c -0.4898488,0 -0.8869572,0.3971085 -0.8869572,0.8869572 0,0.4898486 0.3971084,0.8869565 0.8869572,0.8869565 0.4898487,0 0.8869571,-0.3971079 0.8869571,-0.8869565 0,-0.4898487 -0.3971084,-0.8869572 -0.8869571,-0.8869572 z m 4.4347852,4.4347862 c -0.979734,0 -1.773914,0.794208 -1.773914,1.773914 0,0.979733 0.794207,1.773914 1.773914,1.773914 0.895739,-2.98e-4 1.650716,-0.668331 1.760078,-1.557407 0.0355,-0.142837 0.0349,-0.292271 -0.0018,-0.434823 -0.110051,-0.887666 -0.863835,-1.554569 -1.75835,-1.555634 z m -9.7565282,0.886957 c -1.1994322,-0.01697 -1.1994322,1.790855 0,1.773915 H 8.9625417 C 8.8865871,14.387167 8.847592,14.089149 8.8464748,13.789783 c 0.00168,-0.299436 0.04126,-0.597463 0.1177968,-0.886957 z"
     fill="#8eef97"
     id="path2"
     style="stroke-width:0.886956" />
  <path
     d="M 6.5485058,0.97950524 A 0.5203528,0.5203528 0 0 0 6.1806375,1.1319378 L 4.0994344,3.213141 a 0.5203528,0.5203528 0 0 0 0,0.7357577 L 6.1806375,6.0301011 A 0.5203528,0.5203528 0 0 0 6.5485058,6.1825336 H 10.710912 A 0.5203528,0.5203528 0 0 0 11.231213,5.6622325 V 1.4998268 A 0.5203528,0.5203528 0 0 0 10.710912,0.97952604 H 6.5485058 Z M 6.028205,3.0607085 A 0.52030077,0.52030077 0 0 1 6.5485058,3.5810096 0.52030077,0.52030077 0 0 1 6.028205,4.10131 0.52030077,0.52030077 0 0 1 5.5079043,3.5810096 0.52030077,0.52030077 0 0 1 6.028205,3.0607085 Z"
     fill="#8eef97"
     fill-rule="evenodd"
     id="path10"
     style="stroke-width:0.520301" />
</svg>
